<?xml version="1.0" encoding="UTF-8"?>
<svg id="Camada_1" data-name="Camada 1" xmlns="http://www.w3.org/2000/svg" viewBox="0 0 24 24">
  <defs>
    <style>
      .cls-1 {
        fill: #fff;
      }

      .cls-2 {
        fill: #242b07;
      }

      .cls-3 {
        fill: #9dbc20;
      }
    </style>
  </defs>
  <circle class="cls-1" cx="1.64" cy="7.9" r="1"/>
  <g>
    <circle class="cls-1" cx="17.04" cy="2" r="1"/>
    <circle class="cls-1" cx="20.24" cy="4.8" r="1"/>
    <path class="cls-3" d="m20.84,8.2c0-.4.1-.7.3-1-1.48,0-2.65,1.06-2.93,2.38-.56-.66-1.22-1.22-1.97-1.67v-1.01c0-.6.5-1.1,1.1-1.1h1.7c-.2-.3-.3-.6-.3-1s0-.7.2-.9h-1.7c-1.7,0-3,1.4-3,3v.17c-.39-.1-.79-.19-1.2-.23v-2.74c-.2-.6.4-1.1,1-1.1h1.7c-.3-.3-.4-.6-.4-1s.1-.7.3-1h-1.6c-1.7,0-3,1.4-3,3v2.9c-.48.07-.95.19-1.4.35v-.95c0-1.6-1.4-3-3.1-3h-1.4c.2.3.3.6.3,1s-.1.7-.3.9h1.4c.6,0,1.1.5,1.1,1.1v2.01c-.47.34-.9.74-1.28,1.17-.31-1.44-1.5-2.48-3.02-2.48h-.4c.2.3.3.6.3,1s-.1.7-.3,1h.4c.6,0,1.1.5,1.1,1.1v4.8s.02.07.02.1c.21,4.12,3.61,7.4,7.78,7.4s7.35-3.06,7.76-6.98c.08-.15.14-.32.14-.52v-4.7c0-.6.5-1.1,1.1-1.1-.3-.3-.4-.6-.4-.9Z"/>
    <circle class="cls-1" cx="12.04" cy="14.7" r="5.7"/>
    <circle class="cls-3" cx="12.24" cy="14.7" r="3.3"/>
    <path class="cls-2" d="m12.24,12.6c-.4,0-.8.1-1.1.3.1.2.2.4.2.6,0,.5-.4.9-.9.9-.1,0-.3,0-.4-.1,0,.2-.1.3-.1.5,0,1.2,1,2.2,2.2,2.2s2.2-1,2.2-2.2-.9-2.2-2.1-2.2Z"/>
    <circle class="cls-1" cx="3.84" cy="4.3" r="1"/>
    <path class="cls-1" d="m23.34,8.1c0-.5-.5-.9-1-.9s-.9.5-.9,1,.5.9,1,.9c.6-.1,1-.5.9-1Z"/>
  </g>
</svg>