<?xml version="1.0" encoding="utf-8"?>
<!-- Generator: Adobe Illustrator 23.0.6, SVG Export Plug-In . SVG Version: 6.00 Build 0)  -->
<svg version="1.1" id="Camada_1" xmlns="http://www.w3.org/2000/svg" xmlns:xlink="http://www.w3.org/1999/xlink" x="0px" y="0px"
	 viewBox="0 0 24 24" style="enable-background:new 0 0 24 24;" xml:space="preserve">
<style type="text/css">
	
</style>
<path class="st0" d="M23,23H1v-2h3v-6.4h2V21h8.5v-0.1H18v-6.4h2V21h3V23z M20.6,14.3L12,4.9l-8.6,9.3L2,12.8L12,1.9l3,3.3V3h6v8.8
	l1,1.1L20.6,14.3z M17,5.9l2,2.2V5h-2V5.9z"/>
<polygon class="st0" points="15.5,21 13.5,21 13.5,17 10.5,17 10.5,21 8.5,21 8.5,15 15.5,15 "/>
</svg>
